<?xml version="1.0" encoding="UTF-8"?>
<svg id="Livello_1" data-name="Livello 1" xmlns="http://www.w3.org/2000/svg" viewBox="0 0 443.22 126.97">
  <defs>
    <style>
      .cls-1 {
        fill: #fff;
      }
    </style>
  </defs>
  <g>
    <rect class="cls-1" x="238.57" y=".39" width="21.26" height="72.47" rx="10.63" ry="10.63"/>
    <rect class="cls-1" x="199.33" y="-3.23" width="22.21" height="79.34" rx="11.1" ry="11.1" transform="translate(6.99 101.42) rotate(-27.54)"/>
    <circle class="cls-1" cx="194.73" cy="61.52" r="11.34"/>
  </g>
  <g>
    <rect class="cls-1" x="22.25" y="97.55" width="8.57" height="29.41" rx="4.26" ry="4.26"/>
    <path class="cls-1" d="M18.3,126.45h0c-2.19,1.15-4.89,.3-6.03-1.9L1.59,103.95c-1.14-2.19-.29-4.89,1.9-6.04h0c2.2-1.15,4.91-.3,6.05,1.9l10.66,20.58c1.14,2.2,.29,4.91-1.91,6.06Z"/>
    <ellipse class="cls-1" cx="4.57" cy="122.36" rx="4.57" ry="4.6"/>
    <circle class="cls-1" cx="46.87" cy="122.48" r="4.49"/>
    <circle class="cls-1" cx="100.54" cy="122.48" r="4.49"/>
    <circle class="cls-1" cx="323.17" cy="122.54" r="4.42"/>
    <circle class="cls-1" cx="419.72" cy="122.62" r="4.35"/>
    <rect class="cls-1" x="54.06" y="96.45" width="9.83" height="31.56" rx="4.91" ry="4.91" transform="translate(-42.34 36.01) rotate(-25.33)"/>
    <rect class="cls-1" x="81.43" y="97.39" width="9.89" height="29.58" rx="4.91" ry="4.91"/>
    <rect class="cls-1" x="306.49" y="97.39" width="10.09" height="29.58" rx="5.04" ry="5.04"/>
    <rect class="cls-1" x="257.34" y="97.53" width="7.1" height="29.29" rx="3.55" ry="3.55" transform="translate(148.72 373.07) rotate(-90)"/>
    <rect class="cls-1" x="257.34" y="86.29" width="7.1" height="29.29" rx="3.55" ry="3.55" transform="translate(159.96 361.83) rotate(-90)"/>
    <rect class="cls-1" x="257.25" y="108.77" width="7.1" height="29.29" rx="3.55" ry="3.55" transform="translate(137.38 384.21) rotate(-90)"/>
    <rect class="cls-1" x="427.77" y="96.27" width="10.52" height="31.91" rx="5.26" ry="5.26" transform="translate(-2.94 212.39) rotate(-27.47)"/>
    <path class="cls-1" d="M98.4,97.4h0c3.12,0,5.65,2.53,5.65,5.65v4.47c0,3.12-2.53,5.65-5.65,5.65h0c-.75,0-1.36-.61-1.36-1.36v-13.05c0-.75,.61-1.36,1.36-1.36Z"/>
    <circle class="cls-1" cx="166.78" cy="112.18" r="14.79"/>
    <path class="cls-1" d="M140.82,122.3v.03c0,1.66-1.01,3.2-2.57,3.76-1.01,.37-2.05,.61-3.14,.74-.57,.08-1.14,.13-1.73,.13-6.36,.05-12.11-3.77-14.09-9.82-3.36-10.27,4.2-19.76,13.97-19.76,.94,0,1.86,.09,2.76,.27,.43,.08,.85,.17,1.26,.29,2.42,.67,3.99,3.18,3.34,5.61,0,.02-.01,.04-.02,.06-.58,2.08-2.5,3.37-4.67,3.28,0,0-.01-.01-.02-.01-.24-.01-.48-.1-.7-.22-.52-.29-1.11-.5-1.72-.62-.91-.19-1.89-.19-2.94,.14-2.67,.84-4.54,3.17-4.54,5.98,0,3.46,2.8,6.27,6.26,6.27,.58,0,1.14-.08,1.68-.23,.4-.1,.78-.26,1.13-.43,.35-.09,.72-.14,1.09-.14,2.57,0,4.65,2.09,4.65,4.67Z"/>
    <path class="cls-1" d="M403.31,122.3v.03c0,1.66-1.01,3.2-2.57,3.76-1.01,.37-2.05,.61-3.14,.74-.57,.08-1.14,.13-1.73,.13-6.36,.05-12.11-3.77-14.09-9.82-3.36-10.27,4.2-19.76,13.97-19.76,.94,0,1.86,.09,2.76,.27,.43,.08,.85,.17,1.26,.29,2.42,.67,3.99,3.18,3.34,5.61,0,.02-.01,.04-.02,.06-.58,2.08-2.5,3.37-4.67,3.28,0,0-.01-.01-.02-.01-.24-.01-.48-.1-.7-.22-.52-.29-1.11-.5-1.72-.62-.91-.19-1.89-.19-2.94,.14-2.67,.84-4.54,3.17-4.54,5.98,0,3.46,2.8,6.27,6.26,6.27,.58,0,1.14-.08,1.68-.23,.4-.1,.78-.26,1.13-.43,.35-.09,.72-.14,1.09-.14,2.57,0,4.65,2.09,4.65,4.67Z"/>
    <path class="cls-1" d="M367,113.73c0,7.79-6.78,14.01-14.79,13.16-6.15-.66-11.11-5.6-11.76-11.71-.09-.82-.1-13.49-.04-14.28,.36-4.91,7.79-4.52,7.79,.39v13.26c0,3.25,2.86,5.84,6.21,5.41,2.77-.35,4.77-2.83,4.77-5.6v-13.03c0-4.95,7.47-5.28,7.8-.35,.02,.29,.03,12.45,.03,12.74Z"/>
    <path class="cls-1" d="M223.2,97.39c7.87,0,14.16,7.53,13.29,16.43-.66,6.83-5.66,12.34-11.83,13.06-.83,.1-7.52,.11-8.32,.05-4.96-.4-4.57-8.65,.4-8.65h7.29c3.29,0,5.9-3.18,5.47-6.9-.36-3.07-2.86-5.29-5.66-5.29h-7.05c-5,0-5.34-8.3-.35-8.66,.29-.02,6.47-.03,6.76-.03Z"/>
  </g>
</svg>
